# xmcd
# 
# Track frame offsets:
#     150
#     21269
#     32621
#     43305
#     54247
#     66496
#     77878
#     86652
#     99293
#     107981
#     117949
#     149889
# 
# Disc length: 2583
# 
# Revision: 0
# Processed by: cddbd v1.5.2PL0 Copyright (c) Steve Scherf et al.
# Submitted via: fre:ac v1.0.17
# 
DISCID=ab0a150c
DTITLE=Various Artist - BLUES GUITAR BLASTERS
DYEAR=2005
DGENRE=Blues
TTITLE0=Albert Collins - Frosty
TTITLE1=Connie Mack Booker feat. Cal Green - Love Me Pretty Baby
TTITLE2=Howlin' Wolf feat. Willie Johnson - Keep What You Got
TTITLE3=B.B. King - Let's Do The Boogie
TTITLE4=Champion Jack Dupree feat. Stick McGhee - Shim Sham Shimmy
TTITLE5=Wild Jimmy Spruill - Cut and Dried
TTITLE6=Lee Diamond feat. Roy Gaines - Upsetter Rock
TTITLE7=Larry Birdsong feat Lefty Bates - I'll Run My Business
TTITLE8=The Trojans feat. Ike Turner - I Wanna Make Love To You
TTITLE9=Young Jesse feat. Mickey Baker - Pretty Soon
TTITLE10=Little Joe Washington - Joe's Worried Blues
TTITLE11=Little Joe Washington - Take My Hand
EXTD=blues and soul records No.62
EXTT0=
EXTT1=
EXTT2=
EXTT3=
EXTT4=
EXTT5=
EXTT6=
EXTT7=
EXTT8=
EXTT9=
EXTT10=
EXTT11=
PLAYORDER=
